<svg width="26" height="26" viewBox="0 0 26 26" fill="none" xmlns="http://www.w3.org/2000/svg">
<path d="M13 25.5C11.2708 25.5 9.64583 25.1719 8.125 24.5156C6.60417 23.8594 5.28125 22.9688 4.15625 21.8438C3.03125 20.7188 2.14062 19.3958 1.48438 17.875C0.828125 16.3542 0.5 14.7292 0.5 13C0.5 11.2708 0.828125 9.64583 1.48438 8.125C2.14062 6.60417 3.03125 5.28125 4.15625 4.15625C5.28125 3.03125 6.60417 2.14062 8.125 1.48438C9.64583 0.828125 11.2708 0.5 13 0.5C14.3542 0.5 15.6354 0.697917 16.8438 1.09375C18.0521 1.48958 19.1667 2.04167 20.1875 2.75L18.375 4.59375C17.5833 4.09375 16.7396 3.70312 15.8438 3.42188C14.9479 3.14062 14 3 13 3C10.2292 3 7.86979 3.97396 5.92188 5.92188C3.97396 7.86979 3 10.2292 3 13C3 15.7708 3.97396 18.1302 5.92188 20.0781C7.86979 22.026 10.2292 23 13 23C15.7708 23 18.1302 22.026 20.0781 20.0781C22.026 18.1302 23 15.7708 23 13C23 12.625 22.9792 12.25 22.9375 11.875C22.8958 11.5 22.8333 11.1354 22.75 10.7812L24.7812 8.75C25.0104 9.41667 25.1875 10.1042 25.3125 10.8125C25.4375 11.5208 25.5 12.25 25.5 13C25.5 14.7292 25.1719 16.3542 24.5156 17.875C23.8594 19.3958 22.9688 20.7188 21.8438 21.8438C20.7188 22.9688 19.3958 23.8594 17.875 24.5156C16.3542 25.1719 14.7292 25.5 13 25.5ZM11.25 18.75L5.9375 13.4375L7.6875 11.6875L11.25 15.25L23.75 2.71875L25.5 4.46875L11.25 18.75Z" fill="#292C2D"/>
</svg>
