<svg width="75" height="33" viewBox="0 0 75 33" fill="none" xmlns="http://www.w3.org/2000/svg">
<path d="M37.445 31.6278L37.4735 30.6283L37.445 31.6278ZM5.44587 3.0017C4.94292 2.77355 4.35023 2.99631 4.12207 3.49926L0.403992 11.6953C0.175827 12.1983 0.398591 12.791 0.901548 13.0191C1.4045 13.2473 1.99718 13.0245 2.22534 12.5216L5.53031 5.23618L12.8157 8.54114C13.3187 8.7693 13.9114 8.54654 14.1395 8.04358C14.3677 7.54063 14.1449 6.94795 13.642 6.71979L5.44587 3.0017ZM72.0308 1.0583C72.6317 14.92 58.0804 31.2155 37.4735 30.6283L37.4165 32.6274C59.0165 33.243 74.6871 16.1544 74.0289 0.971685L72.0308 1.0583ZM37.4735 30.6283C17.0842 30.0472 8.99769 11.6192 5.96881 3.56056L4.09669 4.26421C7.10182 12.2597 15.5988 32.0057 37.4165 32.6274L37.4735 30.6283Z" fill="#707070"/>
</svg>
