<svg width="23" height="24" viewBox="0 0 23 24" fill="none" xmlns="http://www.w3.org/2000/svg">
<path d="M5.74898 8.40327C5.44654 8.40789 5.14639 8.34784 4.86706 8.22675C4.58773 8.10566 4.33515 7.9261 4.1249 7.69922C3.90744 7.47986 3.73538 7.2164 3.61932 6.92497C3.50326 6.63355 3.44566 6.32036 3.45009 6.00482C3.44566 5.68927 3.50326 5.37609 3.61932 5.08466C3.73538 4.79324 3.90744 4.52977 4.1249 4.31041C4.33502 4.08325 4.58754 3.90338 4.86688 3.78202C5.14621 3.66065 5.44643 3.6004 5.74898 3.60482C6.05154 3.6004 6.35175 3.66065 6.63109 3.78202C6.91042 3.90338 7.16294 4.08325 7.37307 4.31041C7.59052 4.52977 7.76259 4.79324 7.87865 5.08466C7.99471 5.37609 8.0523 5.68927 8.04787 6.00482C8.0523 6.32036 7.99471 6.63355 7.87865 6.92497C7.76259 7.2164 7.59052 7.47986 7.37307 7.69922C7.16281 7.9261 6.91023 8.10566 6.6309 8.22675C6.35157 8.34784 6.05143 8.40789 5.74898 8.40327ZM3.44858 23.9997C3.29675 24.0035 3.14578 23.9749 3.00495 23.9156C2.86412 23.8562 2.73643 23.7675 2.62971 23.6547C2.52166 23.5434 2.43658 23.4102 2.37973 23.2633C2.32288 23.1163 2.29545 22.9588 2.29913 22.8004C1.99657 22.8049 1.69635 22.7445 1.41702 22.6231C1.13769 22.5018 0.885166 22.3219 0.675043 22.0947C0.457586 21.8754 0.285523 21.6119 0.169463 21.3205C0.0534021 21.0291 -0.00419287 20.7159 0.000237503 20.4003V13.2018H3.45009V12.3015C3.4425 11.9454 3.50491 11.5913 3.63349 11.2613C3.76207 10.9312 3.95408 10.6322 4.19768 10.3825C4.43699 10.1284 4.72366 9.92803 5.04001 9.79388C5.35637 9.65974 5.69571 9.59457 6.03711 9.60249C6.40368 9.59928 6.76631 9.68149 7.09859 9.84303C7.43032 10.0072 7.73205 10.2304 7.99024 10.5028L9.60069 12.3617C9.75435 12.522 9.90296 12.6718 10.0465 12.811C10.1944 12.9539 10.3531 13.0841 10.5212 13.2003H18.3974V3.4228C18.3991 3.28865 18.3743 3.15562 18.3248 3.03181C18.2752 2.90801 18.2019 2.79612 18.1093 2.70301C18.0201 2.60641 17.9128 2.52991 17.7942 2.47821C17.6755 2.42651 17.5479 2.40071 17.4193 2.40241C17.3053 2.40201 17.1925 2.42738 17.0888 2.47676C16.9755 2.53194 16.8728 2.60801 16.7855 2.70137L15.3479 4.2012C15.443 4.52662 15.4627 4.87093 15.4055 5.20585C15.3498 5.5314 15.2328 5.84221 15.0613 6.12031L11.8996 2.76153C12.1607 2.58445 12.4547 2.46689 12.7624 2.41661C13.0727 2.36671 13.3901 2.40278 13.6829 2.52109L15.1205 1.02126C15.4221 0.704874 15.7781 0.450485 16.1698 0.271346C16.5641 0.0908773 16.9903 -0.00131959 17.4209 0.000774404C17.8534 -0.00900132 18.2832 0.0738671 18.6838 0.244212C19.0844 0.414556 19.4473 0.668722 19.7501 0.991132C20.0589 1.30681 20.3025 1.68519 20.4657 2.10287C20.629 2.52055 20.7085 2.96873 20.6994 3.41971V13.1971H22.9998V20.3956C23.0042 20.7112 22.9466 21.0243 22.8305 21.3158C22.7145 21.6072 22.5424 21.8707 22.325 22.09C22.1148 22.3172 21.8623 22.497 21.583 22.6184C21.3036 22.7398 21.0034 22.8001 20.7009 22.7957C20.7045 22.9541 20.6771 23.1116 20.6203 23.2585C20.5634 23.4055 20.4783 23.5387 20.3703 23.65C20.2636 23.7627 20.1359 23.8515 19.9951 23.9108C19.8542 23.9701 19.7032 23.9988 19.5514 23.9949L3.44858 23.9997ZM2.29913 20.4003H20.6978V15.6018H2.30064L2.29913 20.4003Z" fill="#5F6368"/>
</svg>
