<svg width="24" height="17" viewBox="0 0 24 17" fill="none" xmlns="http://www.w3.org/2000/svg">
<path d="M0.000284589 17V9.71369C-0.00645933 9.19871 0.106741 8.68936 0.330716 8.22689C0.549148 7.7834 0.843437 7.38252 1.19996 7.04287V3.64304C1.19142 3.16319 1.28013 2.68666 1.46061 2.24285C1.64109 1.79904 1.9095 1.39735 2.2493 1.06259C2.58007 0.718695 2.97696 0.447004 3.41548 0.264351C3.854 0.0816976 4.32485 -0.00806925 4.79898 0.00056921H9.59767C10.0407 -0.00316385 10.4797 0.084513 10.8881 0.258191C11.294 0.433911 11.6689 0.675044 11.9985 0.972212C12.3281 0.675044 12.7031 0.433911 13.1089 0.258191C13.5173 0.084513 13.9564 -0.00316385 14.3994 0.00056921H19.201C19.6752 -0.00806925 20.146 0.0816976 20.5845 0.264351C21.023 0.447004 21.4199 0.718695 21.7507 1.06259C22.0905 1.39735 22.3589 1.79904 22.5394 2.24285C22.7199 2.68666 22.8086 3.16319 22.8 3.64304V7.04287C23.1566 7.38252 23.4509 7.7834 23.6693 8.22689C23.8933 8.68936 24.0065 9.19871 23.9997 9.71369V17H21.5974V14.5717H2.39666V17H0.000284589ZM13.1982 6.07131H20.3918V3.64304C20.3956 3.48269 20.3669 3.3232 20.3075 3.1745C20.2481 3.02579 20.1593 2.89096 20.0465 2.77832C19.9352 2.66414 19.8019 2.57428 19.655 2.51417C19.5081 2.45407 19.3505 2.425 19.1921 2.42885H14.3979C14.2394 2.425 14.0819 2.45407 13.935 2.51417C13.788 2.57428 13.6548 2.66414 13.5435 2.77832C13.4307 2.89096 13.3418 3.02579 13.2825 3.1745C13.2231 3.3232 13.1944 3.48269 13.1982 3.64304V6.07131ZM3.59931 6.07131H10.7988V3.64304C10.8026 3.48269 10.774 3.3232 10.7146 3.1745C10.6552 3.02579 10.5664 2.89096 10.4535 2.77832C10.3422 2.66414 10.209 2.57428 10.0621 2.51417C9.91514 2.45407 9.7576 2.425 9.59916 2.42885H4.79898C4.64054 2.425 4.483 2.45407 4.33607 2.51417C4.18914 2.57428 4.05592 2.66414 3.94462 2.77832C3.8318 2.89096 3.74295 3.02579 3.68357 3.1745C3.62418 3.3232 3.5955 3.48269 3.59931 3.64304V6.07131ZM2.39963 12.1434H21.6004V9.71516C21.6042 9.55481 21.5755 9.39542 21.5161 9.24672C21.4567 9.09801 21.3679 8.96318 21.2551 8.85054C21.1438 8.73635 21.0105 8.6464 20.8636 8.5863C20.7167 8.52619 20.5591 8.49722 20.4007 8.50107H3.59931C3.44087 8.49722 3.28333 8.52619 3.1364 8.5863C2.98946 8.6464 2.85625 8.73635 2.74495 8.85054C2.63213 8.96318 2.54328 9.09801 2.48389 9.24672C2.4245 9.39542 2.39583 9.55481 2.39963 9.71516V12.1434Z" fill="#5F6368"/>
</svg>
