<svg width="18" height="10" viewBox="0 0 18 10" fill="none" xmlns="http://www.w3.org/2000/svg">
<path d="M16.7356 2.05128L9.12163 9.75628C9.04603 9.83344 8.95578 9.89475 8.85619 9.93659C8.7566 9.97844 8.64966 10 8.54163 10C8.4336 10 8.32666 9.97844 8.22707 9.93659C8.12747 9.89475 8.03723 9.83344 7.96163 9.75628L0.347628 2.05128C0.124832 1.82446 0 1.51922 0 1.20128C0 0.883339 0.124832 0.578107 0.347628 0.351282C0.4574 0.240017 0.588184 0.15167 0.732384 0.0913687C0.876584 0.0310678 1.03133 1.62125e-05 1.18763 1.62125e-05C1.34393 1.62125e-05 1.49867 0.0310678 1.64287 0.0913687C1.78707 0.15167 1.91786 0.240017 2.02763 0.351282L8.54263 6.94128L15.0556 0.350282C15.1655 0.238987 15.2964 0.150619 15.4406 0.0903044C15.5849 0.0299902 15.7397 -0.00106716 15.8961 -0.00106716C16.0525 -0.00106716 16.2073 0.0299902 16.3516 0.0903044C16.4959 0.150619 16.6268 0.238987 16.7366 0.350282C16.9594 0.577106 17.0843 0.882339 17.0843 1.20028C17.0843 1.51822 16.9594 1.82346 16.7366 2.05028" fill="#292C2D"/>
</svg>
