<!-- Generated by IcoMoon.io -->
<svg version="1.1" xmlns="http://www.w3.org/2000/svg" width="32" height="32" viewBox="0 0 32 32">
<path d="M2 4c0-1.105 0.895-2 2-2h4c1.105 0 2 0.895 2 2v4c0 1.105-0.895 2-2 2h-4c-1.105 0-2-0.895-2-2v-4z"></path>
<path d="M12 4c0-1.105 0.895-2 2-2h4c1.105 0 2 0.895 2 2v4c0 1.105-0.895 2-2 2h-4c-1.105 0-2-0.895-2-2v-4z"></path>
<path d="M22 4c0-1.105 0.895-2 2-2h4c1.105 0 2 0.895 2 2v4c0 1.105-0.895 2-2 2h-4c-1.105 0-2-0.895-2-2v-4z"></path>
<path d="M2 14c0-1.105 0.895-2 2-2h4c1.105 0 2 0.895 2 2v4c0 1.105-0.895 2-2 2h-4c-1.105 0-2-0.895-2-2v-4z"></path>
<path d="M12 14c0-1.105 0.895-2 2-2h4c1.105 0 2 0.895 2 2v4c0 1.105-0.895 2-2 2h-4c-1.105 0-2-0.895-2-2v-4z"></path>
<path d="M22 14c0-1.105 0.895-2 2-2h4c1.105 0 2 0.895 2 2v4c0 1.105-0.895 2-2 2h-4c-1.105 0-2-0.895-2-2v-4z"></path>
<path d="M2 24c0-1.105 0.895-2 2-2h4c1.105 0 2 0.895 2 2v4c0 1.105-0.895 2-2 2h-4c-1.105 0-2-0.895-2-2v-4z"></path>
<path d="M12 24c0-1.105 0.895-2 2-2h4c1.105 0 2 0.895 2 2v4c0 1.105-0.895 2-2 2h-4c-1.105 0-2-0.895-2-2v-4z"></path>
<path d="M22 24c0-1.105 0.895-2 2-2h4c1.105 0 2 0.895 2 2v4c0 1.105-0.895 2-2 2h-4c-1.105 0-2-0.895-2-2v-4z"></path>
</svg>
