<svg width="6" height="28" viewBox="0 0 6 28" fill="none" xmlns="http://www.w3.org/2000/svg">
<path fill-rule="evenodd" clip-rule="evenodd" d="M2.77883 5.6C4.31352 5.6 5.55766 4.34638 5.55766 2.8C5.55766 1.2536 4.31352 0 2.77883 0C1.24412 0 0 1.2536 0 2.8C0 4.34638 1.24412 5.6 2.77883 5.6Z" fill="#035781"/>
<path fill-rule="evenodd" clip-rule="evenodd" d="M2.77883 16.8C4.31352 16.8 5.55766 15.5464 5.55766 14C5.55766 12.4536 4.31352 11.2 2.77883 11.2C1.24412 11.2 0 12.4536 0 14C0 15.5464 1.24412 16.8 2.77883 16.8Z" fill="#035781"/>
<path fill-rule="evenodd" clip-rule="evenodd" d="M2.77883 28C4.31352 28 5.55766 26.7464 5.55766 25.2C5.55766 23.6536 4.31352 22.4 2.77883 22.4C1.24412 22.4 0 23.6536 0 25.2C0 26.7464 1.24412 28 2.77883 28Z" fill="#035781"/>
</svg>
