<svg width="11" height="11" viewBox="0 0 11 11" fill="none" xmlns="http://www.w3.org/2000/svg">
<path d="M5.52793 0.235229C5.70151 0.235229 5.86798 0.304185 5.99072 0.426926C6.11346 0.549667 6.18242 0.716139 6.18242 0.889721V4.81667H10.1094C10.283 4.81667 10.4494 4.88563 10.5722 5.00837C10.6949 5.13111 10.7639 5.29758 10.7639 5.47116C10.7639 5.64475 10.6949 5.81122 10.5722 5.93396C10.4494 6.0567 10.283 6.12566 10.1094 6.12566H6.18242V10.0526C6.18242 10.2262 6.11346 10.3927 5.99072 10.5154C5.86798 10.6381 5.70151 10.7071 5.52793 10.7071C5.35434 10.7071 5.18787 10.6381 5.06513 10.5154C4.94239 10.3927 4.87343 10.2262 4.87343 10.0526V6.12566H0.946484C0.772902 6.12566 0.60643 6.0567 0.483689 5.93396C0.360948 5.81122 0.291992 5.64475 0.291992 5.47116C0.291992 5.29758 0.360948 5.13111 0.483689 5.00837C0.60643 4.88563 0.772902 4.81667 0.946484 4.81667H4.87343V0.889721C4.87343 0.716139 4.94239 0.549667 5.06513 0.426926C5.18787 0.304185 5.35434 0.235229 5.52793 0.235229Z" fill="black"/>
</svg>
