<svg width="30" height="30" viewBox="0 0 30 30" fill="none" xmlns="http://www.w3.org/2000/svg">
<path d="M30 15C30 23.2843 23.2843 30 15 30C6.71573 30 0 23.2843 0 15C0 6.71573 6.71573 0 15 0C23.2843 0 30 6.71573 30 15ZM15.9375 8.4375C15.9375 7.91973 15.5178 7.5 15 7.5C14.4822 7.5 14.0625 7.91973 14.0625 8.4375V14.0625H8.4375C7.91973 14.0625 7.5 14.4822 7.5 15C7.5 15.5178 7.91973 15.9375 8.4375 15.9375H14.0625V21.5625C14.0625 22.0803 14.4822 22.5 15 22.5C15.5178 22.5 15.9375 22.0803 15.9375 21.5625V15.9375H21.5625C22.0803 15.9375 22.5 15.5178 22.5 15C22.5 14.4822 22.0803 14.0625 21.5625 14.0625H15.9375V8.4375Z" fill="##F3704A"/>
</svg>
