<svg width="65" height="167" viewBox="0 0 65 167" fill="none" xmlns="http://www.w3.org/2000/svg">
<path d="M2.99881 127.328C2.99881 127.328 8.36434 124.97 11.8467 117.481C15.0491 110.594 12.3824 105.074 16.25 98.5374C20.2122 91.8407 26.667 91.6864 31.1913 85.3558C35.4303 79.4244 35.24 73.7861 35.24 73.7861" stroke="#FFD433"/>
<path d="M23.9782 91.518C23.9782 91.518 30.0304 88.9897 33.5127 81.5008C36.7152 74.6138 34.0485 69.0939 37.916 62.5572C41.8783 55.8604 48.3331 55.7061 52.8574 49.3755C57.0963 43.4442 56.906 37.8058 56.906 37.8058" stroke="#FFD433"/>
<path d="M2.99881 91.3282C2.99881 91.3282 8.36434 88.9699 11.8467 81.4811C15.0491 74.5941 12.3824 69.0742 16.25 62.5374C20.2122 55.8407 26.667 55.6864 31.1913 49.3558C35.4303 43.4244 35.24 37.7861 35.24 37.7861" stroke="#2387C2"/>
<path d="M23.9782 55.518C23.9782 55.518 30.0304 52.9897 33.5127 45.5008C36.7152 38.6138 34.0485 33.0939 37.916 26.5572C41.8783 19.8604 48.3331 19.7061 52.8574 13.3755C57.0963 7.44417 56.906 1.80579 56.906 1.80579" stroke="#2387C2"/>
<path d="M7.99881 165.328C7.99881 165.328 13.3643 162.97 16.8467 155.481C20.0491 148.594 17.3824 143.074 21.25 136.537C25.2122 129.841 31.667 129.686 36.1913 123.356C40.4303 117.425 40.24 111.786 40.24 111.786" stroke="#F3704A"/>
<path d="M28.9782 129.518C28.9782 129.518 35.0304 126.99 38.5127 119.501C41.7152 112.614 39.0485 107.094 42.916 100.557C46.8783 93.8604 53.3331 93.7062 57.8574 87.3756C62.0963 81.4442 61.906 75.8059 61.906 75.8059" stroke="#F3704A"/>
</svg>
